<?xml version="1.0" ?><svg enable-background="new 0 0 32 32" version="1.1" viewBox="0 0 32 32" xml:space="preserve" xmlns="http://www.w3.org/2000/svg" xmlns:xlink="http://www.w3.org/1999/xlink"><g id="Style_2_copy_4"><g><g><path d="M16,0C7.163,0,0,7.163,0,16c0,8.836,7.163,16,16,16s16-7.164,16-16C32,7.163,24.837,0,16,0z" fill="#2d333a"/></g></g><g id="_x33__stroke"><g id="Feedly_1_"><path d="M12.611,17.801c-0.489,0.577-1.35,0.425-2.012,0.323c-0.583-0.463-1.117-1-1.588-1.573     c-0.273-0.318,0.077-0.648,0.292-0.873c2.964-2.923,5.917-5.858,8.875-8.786c0.397-0.384,0.757-0.81,1.204-1.138     c0.384-0.191,0.681,0.221,0.937,0.44c0.544,0.575,1.16,1.084,1.659,1.699c0.257,0.305-0.025,0.658-0.251,0.876     C18.686,11.777,15.643,14.784,12.611,17.801 M21.937,24.727c-0.473,0.527-0.966,1.044-1.521,1.484     c-0.51,0.121-1.052,0.093-1.567,0.019c-0.496-0.248-0.831-0.725-1.237-1.093c-0.289-0.279-0.741-0.697-0.369-1.099     c0.628-0.692,1.3-1.352,1.995-1.981c0.258-0.216,0.645-0.108,0.854,0.126c0.594,0.569,1.179,1.148,1.752,1.74     C22.07,24.122,22.193,24.498,21.937,24.727 M21.76,16.838c-1.688,1.669-3.381,3.337-5.059,5.017     c-0.471,0.572-1.3,0.391-1.946,0.338c-0.623-0.397-1.107-0.983-1.607-1.518c-0.334-0.313-0.022-0.723,0.235-0.958     c1.69-1.667,3.378-3.335,5.059-5.011c0.306-0.296,0.583-0.636,0.954-0.861c0.372-0.158,0.644,0.217,0.891,0.427     c0.561,0.596,1.202,1.121,1.714,1.759C22.227,16.318,21.966,16.636,21.76,16.838" fill="#FFFFFF" id="Feedly"/></g></g></g></svg>